<?xml version="1.0" encoding="UTF-8" standalone="no"?><svg xmlns="http://www.w3.org/2000/svg" xmlns:xlink="http://www.w3.org/1999/xlink" contentScriptType="application/ecmascript" contentStyleType="text/css" height="1047px" preserveAspectRatio="none" style="width:1193px;height:1047px;" version="1.1" viewBox="0 0 1193 1047" width="1193px" zoomAndPan="magnify"><defs><filter height="300%" id="f5pww1ws2ctwc" width="300%" x="-1" y="-1"><feGaussianBlur result="blurOut" stdDeviation="2.0"/><feColorMatrix in="blurOut" result="blurOut2" type="matrix" values="0 0 0 0 0 0 0 0 0 0 0 0 0 0 0 0 0 0 .4 0"/><feOffset dx="4.0" dy="4.0" in="blurOut2" result="blurOut3"/><feBlend in="SourceGraphic" in2="blurOut3" mode="normal"/></filter></defs><g><!--MD5=[44a1b4afaef76c16e6c9ec4990ad0c8d]
class Item--><rect fill="#FEFECE" filter="url(#f5pww1ws2ctwc)" height="167.8551" id="Item" style="stroke: #A80036; stroke-width: 1.5;" width="95" x="631" y="8"/><ellipse cx="662.65" cy="24" fill="#ADD1B2" rx="11" ry="11" style="stroke: #A80036; stroke-width: 1.0;"/><path d="M665.6188,29.6406 Q665.0406,29.9375 664.4,30.0781 Q663.7594,30.2344 663.0563,30.2344 Q660.5563,30.2344 659.2281,28.5938 Q657.9156,26.9375 657.9156,23.8125 Q657.9156,20.6875 659.2281,19.0313 Q660.5563,17.375 663.0563,17.375 Q663.7594,17.375 664.4,17.5313 Q665.0563,17.6875 665.6188,17.9844 L665.6188,20.7031 Q664.9938,20.125 664.4,19.8594 Q663.8063,19.5781 663.1813,19.5781 Q661.8375,19.5781 661.15,20.6563 Q660.4625,21.7188 660.4625,23.8125 Q660.4625,25.9063 661.15,26.9844 Q661.8375,28.0469 663.1813,28.0469 Q663.8063,28.0469 664.4,27.7813 Q664.9938,27.5 665.6188,26.9219 L665.6188,29.6406 Z "/><text fill="#000000" font-family="sans-serif" font-size="12" lengthAdjust="spacingAndGlyphs" textLength="26" x="680.35" y="28.656">Item</text><line style="stroke: #A80036; stroke-width: 1.5;" x1="632" x2="725" y1="40" y2="40"/><rect fill="none" height="6" style="stroke: #C82930; stroke-width: 1.0;" width="6" x="639" y="48"/><text fill="#000000" font-family="sans-serif" font-size="11" lengthAdjust="spacingAndGlyphs" textLength="38" x="651" y="55.7589">row:int</text><rect fill="none" height="6" style="stroke: #C82930; stroke-width: 1.0;" width="6" x="639" y="62.9819"/><text fill="#000000" font-family="sans-serif" font-size="11" lengthAdjust="spacingAndGlyphs" textLength="32" x="651" y="70.7408">col:int</text><rect fill="none" height="6" style="stroke: #C82930; stroke-width: 1.0;" width="6" x="639" y="77.9638"/><text fill="#000000" font-family="sans-serif" font-size="11" lengthAdjust="spacingAndGlyphs" textLength="64" x="651" y="85.7227">direction:int</text><rect fill="none" height="6" style="stroke: #C82930; stroke-width: 1.0;" width="6" x="639" y="92.9457"/><text fill="#000000" font-family="sans-serif" font-size="11" lengthAdjust="spacingAndGlyphs" textLength="40" x="651" y="100.7046">type:int</text><rect fill="none" height="6" style="stroke: #C82930; stroke-width: 1.0;" width="6" x="639" y="107.9276"/><text fill="#000000" font-family="sans-serif" font-size="11" lengthAdjust="spacingAndGlyphs" textLength="50" x="651" y="115.6865">showable</text><ellipse cx="642" cy="125.9094" fill="none" rx="3" ry="3" style="stroke: #038048; stroke-width: 1.0;"/><text fill="#000000" font-family="sans-serif" font-size="11" lengthAdjust="spacingAndGlyphs" textLength="66" x="651" y="130.6684">update: void</text><ellipse cx="642" cy="140.8913" fill="none" rx="3" ry="3" style="stroke: #038048; stroke-width: 1.0;"/><text fill="#000000" font-family="sans-serif" font-size="11" lengthAdjust="spacingAndGlyphs" textLength="58" x="651" y="145.6502">move: void</text><ellipse cx="642" cy="155.8732" fill="none" rx="3" ry="3" style="stroke: #038048; stroke-width: 1.0;"/><text fill="#000000" font-family="sans-serif" font-size="11" lengthAdjust="spacingAndGlyphs" textLength="69" x="651" y="160.6321">remove: void</text><line style="stroke: #A80036; stroke-width: 1.5;" x1="632" x2="725" y1="167.8551" y2="167.8551"/><!--MD5=[0dc7f2ddb409b58bcf52b12238c25399]
class Ship--><rect fill="#FEFECE" filter="url(#f5pww1ws2ctwc)" height="167.8551" id="Ship" style="stroke: #A80036; stroke-width: 1.5;" width="92" x="214.5" y="255"/><ellipse cx="245.7" cy="271" fill="#ADD1B2" rx="11" ry="11" style="stroke: #A80036; stroke-width: 1.0;"/><path d="M248.6688,276.6406 Q248.0906,276.9375 247.45,277.0781 Q246.8094,277.2344 246.1063,277.2344 Q243.6063,277.2344 242.2781,275.5938 Q240.9656,273.9375 240.9656,270.8125 Q240.9656,267.6875 242.2781,266.0313 Q243.6063,264.375 246.1063,264.375 Q246.8094,264.375 247.45,264.5313 Q248.1063,264.6875 248.6688,264.9844 L248.6688,267.7031 Q248.0438,267.125 247.45,266.8594 Q246.8563,266.5781 246.2313,266.5781 Q244.8875,266.5781 244.2,267.6563 Q243.5125,268.7188 243.5125,270.8125 Q243.5125,272.9063 244.2,273.9844 Q244.8875,275.0469 246.2313,275.0469 Q246.8563,275.0469 247.45,274.7813 Q248.0438,274.5 248.6688,273.9219 L248.6688,276.6406 Z "/><text fill="#000000" font-family="sans-serif" font-size="12" lengthAdjust="spacingAndGlyphs" textLength="24" x="263.3" y="275.656">Ship</text><line style="stroke: #A80036; stroke-width: 1.5;" x1="215.5" x2="305.5" y1="287" y2="287"/><rect fill="none" height="6" style="stroke: #C82930; stroke-width: 1.0;" width="6" x="222.5" y="295"/><text fill="#000000" font-family="sans-serif" font-size="11" lengthAdjust="spacingAndGlyphs" textLength="33" x="234.5" y="302.7589">health</text><rect fill="none" height="6" style="stroke: #C82930; stroke-width: 1.0;" width="6" x="222.5" y="309.9819"/><text fill="#000000" font-family="sans-serif" font-size="11" lengthAdjust="spacingAndGlyphs" textLength="30" x="234.5" y="317.7408">bullet</text><rect fill="none" height="6" style="stroke: #C82930; stroke-width: 1.0;" width="6" x="222.5" y="324.9638"/><text fill="#000000" font-family="sans-serif" font-size="11" lengthAdjust="spacingAndGlyphs" textLength="40" x="234.5" y="332.7227">misssile</text><rect fill="none" height="6" style="stroke: #C82930; stroke-width: 1.0;" width="6" x="222.5" y="339.9457"/><text fill="#000000" font-family="sans-serif" font-size="11" lengthAdjust="spacingAndGlyphs" textLength="43" x="234.5" y="347.7046">torpedo</text><text fill="#000000" font-family="sans-serif" font-size="11" lengthAdjust="spacingAndGlyphs" textLength="0" x="237.5" y="362.6865"/><ellipse cx="225.5" cy="372.9094" fill="none" rx="3" ry="3" style="stroke: #038048; stroke-width: 1.0;"/><text fill="#000000" font-family="sans-serif" font-size="11" lengthAdjust="spacingAndGlyphs" textLength="47" x="234.5" y="377.6684">fire: void</text><ellipse cx="225.5" cy="387.8913" fill="none" rx="3" ry="3" style="stroke: #038048; stroke-width: 1.0;"/><text fill="#000000" font-family="sans-serif" font-size="11" lengthAdjust="spacingAndGlyphs" textLength="55" x="234.5" y="392.6502">move:void</text><ellipse cx="225.5" cy="402.8732" fill="none" rx="3" ry="3" style="stroke: #038048; stroke-width: 1.0;"/><text fill="#000000" font-family="sans-serif" font-size="11" lengthAdjust="spacingAndGlyphs" textLength="66" x="234.5" y="407.6321">remove:void</text><line style="stroke: #A80036; stroke-width: 1.5;" x1="215.5" x2="305.5" y1="414.8551" y2="414.8551"/><!--MD5=[a3f6aaa3f93db2c29fed664e0312b4de]
class Weapon--><rect fill="#FEFECE" filter="url(#f5pww1ws2ctwc)" height="77.9638" id="Weapon" style="stroke: #A80036; stroke-width: 1.5;" width="114" x="490.5" y="300"/><ellipse cx="521.7" cy="316" fill="#ADD1B2" rx="11" ry="11" style="stroke: #A80036; stroke-width: 1.0;"/><path d="M524.6688,321.6406 Q524.0906,321.9375 523.45,322.0781 Q522.8094,322.2344 522.1063,322.2344 Q519.6063,322.2344 518.2781,320.5938 Q516.9656,318.9375 516.9656,315.8125 Q516.9656,312.6875 518.2781,311.0313 Q519.6063,309.375 522.1063,309.375 Q522.8094,309.375 523.45,309.5313 Q524.1063,309.6875 524.6688,309.9844 L524.6688,312.7031 Q524.0438,312.125 523.45,311.8594 Q522.8563,311.5781 522.2313,311.5781 Q520.8875,311.5781 520.2,312.6563 Q519.5125,313.7188 519.5125,315.8125 Q519.5125,317.9063 520.2,318.9844 Q520.8875,320.0469 522.2313,320.0469 Q522.8563,320.0469 523.45,319.7813 Q524.0438,319.5 524.6688,318.9219 L524.6688,321.6406 Z "/><text fill="#000000" font-family="sans-serif" font-size="12" lengthAdjust="spacingAndGlyphs" textLength="46" x="539.3" y="320.656">Weapon</text><line style="stroke: #A80036; stroke-width: 1.5;" x1="491.5" x2="603.5" y1="332" y2="332"/><rect fill="none" height="6" style="stroke: #C82930; stroke-width: 1.0;" width="6" x="498.5" y="340"/><text fill="#000000" font-family="sans-serif" font-size="11" lengthAdjust="spacingAndGlyphs" textLength="36" x="510.5" y="347.7589">sender</text><ellipse cx="501.5" cy="357.9819" fill="none" rx="3" ry="3" style="stroke: #038048; stroke-width: 1.0;"/><text fill="#000000" font-family="sans-serif" font-size="11" lengthAdjust="spacingAndGlyphs" textLength="88" x="510.5" y="362.7408">check_crash:void</text><line style="stroke: #A80036; stroke-width: 1.5;" x1="491.5" x2="603.5" y1="369.9638" y2="369.9638"/><!--MD5=[2cb47ba637a0d19583e6199456f6ad0b]
class Player--><rect fill="#FEFECE" filter="url(#f5pww1ws2ctwc)" height="48" id="Player" style="stroke: #A80036; stroke-width: 1.5;" width="67" x="6" y="538.5"/><ellipse cx="21" cy="554.5" fill="#ADD1B2" rx="11" ry="11" style="stroke: #A80036; stroke-width: 1.0;"/><path d="M23.9688,560.1406 Q23.3906,560.4375 22.75,560.5781 Q22.1094,560.7344 21.4063,560.7344 Q18.9063,560.7344 17.5781,559.0938 Q16.2656,557.4375 16.2656,554.3125 Q16.2656,551.1875 17.5781,549.5313 Q18.9063,547.875 21.4063,547.875 Q22.1094,547.875 22.75,548.0313 Q23.4063,548.1875 23.9688,548.4844 L23.9688,551.2031 Q23.3438,550.625 22.75,550.3594 Q22.1563,550.0781 21.5313,550.0781 Q20.1875,550.0781 19.5,551.1563 Q18.8125,552.2188 18.8125,554.3125 Q18.8125,556.4063 19.5,557.4844 Q20.1875,558.5469 21.5313,558.5469 Q22.1563,558.5469 22.75,558.2813 Q23.3438,558 23.9688,557.4219 L23.9688,560.1406 Z "/><text fill="#000000" font-family="sans-serif" font-size="12" lengthAdjust="spacingAndGlyphs" textLength="35" x="35" y="559.156">Player</text><line style="stroke: #A80036; stroke-width: 1.5;" x1="7" x2="72" y1="570.5" y2="570.5"/><line style="stroke: #A80036; stroke-width: 1.5;" x1="7" x2="72" y1="578.5" y2="578.5"/><!--MD5=[9c8c16aa772efcde400e8793392f3ffc]
class Gunboat--><rect fill="#FEFECE" filter="url(#f5pww1ws2ctwc)" height="48" id="Gunboat" style="stroke: #A80036; stroke-width: 1.5;" width="80" x="108.5" y="538.5"/><ellipse cx="123.5" cy="554.5" fill="#ADD1B2" rx="11" ry="11" style="stroke: #A80036; stroke-width: 1.0;"/><path d="M126.4688,560.1406 Q125.8906,560.4375 125.25,560.5781 Q124.6094,560.7344 123.9063,560.7344 Q121.4063,560.7344 120.0781,559.0938 Q118.7656,557.4375 118.7656,554.3125 Q118.7656,551.1875 120.0781,549.5313 Q121.4063,547.875 123.9063,547.875 Q124.6094,547.875 125.25,548.0313 Q125.9063,548.1875 126.4688,548.4844 L126.4688,551.2031 Q125.8438,550.625 125.25,550.3594 Q124.6563,550.0781 124.0313,550.0781 Q122.6875,550.0781 122,551.1563 Q121.3125,552.2188 121.3125,554.3125 Q121.3125,556.4063 122,557.4844 Q122.6875,558.5469 124.0313,558.5469 Q124.6563,558.5469 125.25,558.2813 Q125.8438,558 126.4688,557.4219 L126.4688,560.1406 Z "/><text fill="#000000" font-family="sans-serif" font-size="12" lengthAdjust="spacingAndGlyphs" textLength="48" x="137.5" y="559.156">Gunboat</text><line style="stroke: #A80036; stroke-width: 1.5;" x1="109.5" x2="187.5" y1="570.5" y2="570.5"/><line style="stroke: #A80036; stroke-width: 1.5;" x1="109.5" x2="187.5" y1="578.5" y2="578.5"/><!--MD5=[24be9765141baf7814916b480d91cfe5]
class Cruiser--><rect fill="#FEFECE" filter="url(#f5pww1ws2ctwc)" height="48" id="Cruiser" style="stroke: #A80036; stroke-width: 1.5;" width="73" x="224" y="538.5"/><ellipse cx="239" cy="554.5" fill="#ADD1B2" rx="11" ry="11" style="stroke: #A80036; stroke-width: 1.0;"/><path d="M241.9688,560.1406 Q241.3906,560.4375 240.75,560.5781 Q240.1094,560.7344 239.4063,560.7344 Q236.9063,560.7344 235.5781,559.0938 Q234.2656,557.4375 234.2656,554.3125 Q234.2656,551.1875 235.5781,549.5313 Q236.9063,547.875 239.4063,547.875 Q240.1094,547.875 240.75,548.0313 Q241.4063,548.1875 241.9688,548.4844 L241.9688,551.2031 Q241.3438,550.625 240.75,550.3594 Q240.1563,550.0781 239.5313,550.0781 Q238.1875,550.0781 237.5,551.1563 Q236.8125,552.2188 236.8125,554.3125 Q236.8125,556.4063 237.5,557.4844 Q238.1875,558.5469 239.5313,558.5469 Q240.1563,558.5469 240.75,558.2813 Q241.3438,558 241.9688,557.4219 L241.9688,560.1406 Z "/><text fill="#000000" font-family="sans-serif" font-size="12" lengthAdjust="spacingAndGlyphs" textLength="41" x="253" y="559.156">Cruiser</text><line style="stroke: #A80036; stroke-width: 1.5;" x1="225" x2="296" y1="570.5" y2="570.5"/><line style="stroke: #A80036; stroke-width: 1.5;" x1="225" x2="296" y1="578.5" y2="578.5"/><!--MD5=[92a4c3cf1b5f59c7b018e82300da5700]
class Destroyer--><rect fill="#FEFECE" filter="url(#f5pww1ws2ctwc)" height="48" id="Destroyer" style="stroke: #A80036; stroke-width: 1.5;" width="88" x="332.5" y="538.5"/><ellipse cx="347.5" cy="554.5" fill="#ADD1B2" rx="11" ry="11" style="stroke: #A80036; stroke-width: 1.0;"/><path d="M350.4688,560.1406 Q349.8906,560.4375 349.25,560.5781 Q348.6094,560.7344 347.9063,560.7344 Q345.4063,560.7344 344.0781,559.0938 Q342.7656,557.4375 342.7656,554.3125 Q342.7656,551.1875 344.0781,549.5313 Q345.4063,547.875 347.9063,547.875 Q348.6094,547.875 349.25,548.0313 Q349.9063,548.1875 350.4688,548.4844 L350.4688,551.2031 Q349.8438,550.625 349.25,550.3594 Q348.6563,550.0781 348.0313,550.0781 Q346.6875,550.0781 346,551.1563 Q345.3125,552.2188 345.3125,554.3125 Q345.3125,556.4063 346,557.4844 Q346.6875,558.5469 348.0313,558.5469 Q348.6563,558.5469 349.25,558.2813 Q349.8438,558 350.4688,557.4219 L350.4688,560.1406 Z "/><text fill="#000000" font-family="sans-serif" font-size="12" lengthAdjust="spacingAndGlyphs" textLength="56" x="361.5" y="559.156">Destroyer</text><line style="stroke: #A80036; stroke-width: 1.5;" x1="333.5" x2="419.5" y1="570.5" y2="570.5"/><line style="stroke: #A80036; stroke-width: 1.5;" x1="333.5" x2="419.5" y1="578.5" y2="578.5"/><!--MD5=[1d65913cb02bd31f7533a34c54f49902]
class Bomber--><rect fill="#FEFECE" filter="url(#f5pww1ws2ctwc)" height="48" id="Bomber" style="stroke: #A80036; stroke-width: 1.5;" width="77" x="640" y="315"/><ellipse cx="655" cy="331" fill="#ADD1B2" rx="11" ry="11" style="stroke: #A80036; stroke-width: 1.0;"/><path d="M657.9688,336.6406 Q657.3906,336.9375 656.75,337.0781 Q656.1094,337.2344 655.4063,337.2344 Q652.9063,337.2344 651.5781,335.5938 Q650.2656,333.9375 650.2656,330.8125 Q650.2656,327.6875 651.5781,326.0313 Q652.9063,324.375 655.4063,324.375 Q656.1094,324.375 656.75,324.5313 Q657.4063,324.6875 657.9688,324.9844 L657.9688,327.7031 Q657.3438,327.125 656.75,326.8594 Q656.1563,326.5781 655.5313,326.5781 Q654.1875,326.5781 653.5,327.6563 Q652.8125,328.7188 652.8125,330.8125 Q652.8125,332.9063 653.5,333.9844 Q654.1875,335.0469 655.5313,335.0469 Q656.1563,335.0469 656.75,334.7813 Q657.3438,334.5 657.9688,333.9219 L657.9688,336.6406 Z "/><text fill="#000000" font-family="sans-serif" font-size="12" lengthAdjust="spacingAndGlyphs" textLength="45" x="669" y="335.656">Bomber</text><line style="stroke: #A80036; stroke-width: 1.5;" x1="641" x2="716" y1="347" y2="347"/><line style="stroke: #A80036; stroke-width: 1.5;" x1="641" x2="716" y1="355" y2="355"/><!--MD5=[2824395d61b6e4620487641a86c41e67]
class Bullet--><rect fill="#FEFECE" filter="url(#f5pww1ws2ctwc)" height="48" id="Bullet" style="stroke: #A80036; stroke-width: 1.5;" width="64" x="455.5" y="538.5"/><ellipse cx="470.5" cy="554.5" fill="#ADD1B2" rx="11" ry="11" style="stroke: #A80036; stroke-width: 1.0;"/><path d="M473.4688,560.1406 Q472.8906,560.4375 472.25,560.5781 Q471.6094,560.7344 470.9063,560.7344 Q468.4063,560.7344 467.0781,559.0938 Q465.7656,557.4375 465.7656,554.3125 Q465.7656,551.1875 467.0781,549.5313 Q468.4063,547.875 470.9063,547.875 Q471.6094,547.875 472.25,548.0313 Q472.9063,548.1875 473.4688,548.4844 L473.4688,551.2031 Q472.8438,550.625 472.25,550.3594 Q471.6563,550.0781 471.0313,550.0781 Q469.6875,550.0781 469,551.1563 Q468.3125,552.2188 468.3125,554.3125 Q468.3125,556.4063 469,557.4844 Q469.6875,558.5469 471.0313,558.5469 Q471.6563,558.5469 472.25,558.2813 Q472.8438,558 473.4688,557.4219 L473.4688,560.1406 Z "/><text fill="#000000" font-family="sans-serif" font-size="12" lengthAdjust="spacingAndGlyphs" textLength="32" x="484.5" y="559.156">Bullet</text><line style="stroke: #A80036; stroke-width: 1.5;" x1="456.5" x2="518.5" y1="570.5" y2="570.5"/><line style="stroke: #A80036; stroke-width: 1.5;" x1="456.5" x2="518.5" y1="578.5" y2="578.5"/><!--MD5=[08e6eb70297d7f82cbb2c0ecd9e67c76]
class Missile--><rect fill="#FEFECE" filter="url(#f5pww1ws2ctwc)" height="48" id="Missile" style="stroke: #A80036; stroke-width: 1.5;" width="71" x="555" y="538.5"/><ellipse cx="570" cy="554.5" fill="#ADD1B2" rx="11" ry="11" style="stroke: #A80036; stroke-width: 1.0;"/><path d="M572.9688,560.1406 Q572.3906,560.4375 571.75,560.5781 Q571.1094,560.7344 570.4063,560.7344 Q567.9063,560.7344 566.5781,559.0938 Q565.2656,557.4375 565.2656,554.3125 Q565.2656,551.1875 566.5781,549.5313 Q567.9063,547.875 570.4063,547.875 Q571.1094,547.875 571.75,548.0313 Q572.4063,548.1875 572.9688,548.4844 L572.9688,551.2031 Q572.3438,550.625 571.75,550.3594 Q571.1563,550.0781 570.5313,550.0781 Q569.1875,550.0781 568.5,551.1563 Q567.8125,552.2188 567.8125,554.3125 Q567.8125,556.4063 568.5,557.4844 Q569.1875,558.5469 570.5313,558.5469 Q571.1563,558.5469 571.75,558.2813 Q572.3438,558 572.9688,557.4219 L572.9688,560.1406 Z "/><text fill="#000000" font-family="sans-serif" font-size="12" lengthAdjust="spacingAndGlyphs" textLength="39" x="584" y="559.156">Missile</text><line style="stroke: #A80036; stroke-width: 1.5;" x1="556" x2="625" y1="570.5" y2="570.5"/><line style="stroke: #A80036; stroke-width: 1.5;" x1="556" x2="625" y1="578.5" y2="578.5"/><!--MD5=[516b6bb0d5ccfa79607c5c681b412cee]
class Torpedo--><rect fill="#FEFECE" filter="url(#f5pww1ws2ctwc)" height="48" id="Torpedo" style="stroke: #A80036; stroke-width: 1.5;" width="79" x="661" y="538.5"/><ellipse cx="676" cy="554.5" fill="#ADD1B2" rx="11" ry="11" style="stroke: #A80036; stroke-width: 1.0;"/><path d="M678.9688,560.1406 Q678.3906,560.4375 677.75,560.5781 Q677.1094,560.7344 676.4063,560.7344 Q673.9063,560.7344 672.5781,559.0938 Q671.2656,557.4375 671.2656,554.3125 Q671.2656,551.1875 672.5781,549.5313 Q673.9063,547.875 676.4063,547.875 Q677.1094,547.875 677.75,548.0313 Q678.4063,548.1875 678.9688,548.4844 L678.9688,551.2031 Q678.3438,550.625 677.75,550.3594 Q677.1563,550.0781 676.5313,550.0781 Q675.1875,550.0781 674.5,551.1563 Q673.8125,552.2188 673.8125,554.3125 Q673.8125,556.4063 674.5,557.4844 Q675.1875,558.5469 676.5313,558.5469 Q677.1563,558.5469 677.75,558.2813 Q678.3438,558 678.9688,557.4219 L678.9688,560.1406 Z "/><text fill="#000000" font-family="sans-serif" font-size="12" lengthAdjust="spacingAndGlyphs" textLength="47" x="690" y="559.156">Torpedo</text><line style="stroke: #A80036; stroke-width: 1.5;" x1="662" x2="739" y1="570.5" y2="570.5"/><line style="stroke: #A80036; stroke-width: 1.5;" x1="662" x2="739" y1="578.5" y2="578.5"/><!--MD5=[05ce2a234461a7e613a06d388968c06d]
class Island--><rect fill="#FEFECE" filter="url(#f5pww1ws2ctwc)" height="48" id="Island" style="stroke: #A80036; stroke-width: 1.5;" width="66" x="760.5" y="453"/><ellipse cx="775.5" cy="469" fill="#ADD1B2" rx="11" ry="11" style="stroke: #A80036; stroke-width: 1.0;"/><path d="M778.4688,474.6406 Q777.8906,474.9375 777.25,475.0781 Q776.6094,475.2344 775.9063,475.2344 Q773.4063,475.2344 772.0781,473.5938 Q770.7656,471.9375 770.7656,468.8125 Q770.7656,465.6875 772.0781,464.0313 Q773.4063,462.375 775.9063,462.375 Q776.6094,462.375 777.25,462.5313 Q777.9063,462.6875 778.4688,462.9844 L778.4688,465.7031 Q777.8438,465.125 777.25,464.8594 Q776.6563,464.5781 776.0313,464.5781 Q774.6875,464.5781 774,465.6563 Q773.3125,466.7188 773.3125,468.8125 Q773.3125,470.9063 774,471.9844 Q774.6875,473.0469 776.0313,473.0469 Q776.6563,473.0469 777.25,472.7813 Q777.8438,472.5 778.4688,471.9219 L778.4688,474.6406 Z "/><text fill="#000000" font-family="sans-serif" font-size="12" lengthAdjust="spacingAndGlyphs" textLength="34" x="789.5" y="473.656">Island</text><line style="stroke: #A80036; stroke-width: 1.5;" x1="761.5" x2="825.5" y1="485" y2="485"/><line style="stroke: #A80036; stroke-width: 1.5;" x1="761.5" x2="825.5" y1="493" y2="493"/><!--MD5=[ed59bb8f54e2c8af7c561b182d70ca56]
class Pack--><rect fill="#FEFECE" filter="url(#f5pww1ws2ctwc)" height="62.9819" id="Pack" style="stroke: #A80036; stroke-width: 1.5;" width="114" x="846.5" y="307.5"/><ellipse cx="886.7" cy="323.5" fill="#ADD1B2" rx="11" ry="11" style="stroke: #A80036; stroke-width: 1.0;"/><path d="M889.6688,329.1406 Q889.0906,329.4375 888.45,329.5781 Q887.8094,329.7344 887.1063,329.7344 Q884.6063,329.7344 883.2781,328.0938 Q881.9656,326.4375 881.9656,323.3125 Q881.9656,320.1875 883.2781,318.5313 Q884.6063,316.875 887.1063,316.875 Q887.8094,316.875 888.45,317.0313 Q889.1063,317.1875 889.6688,317.4844 L889.6688,320.2031 Q889.0438,319.625 888.45,319.3594 Q887.8563,319.0781 887.2313,319.0781 Q885.8875,319.0781 885.2,320.1563 Q884.5125,321.2188 884.5125,323.3125 Q884.5125,325.4063 885.2,326.4844 Q885.8875,327.5469 887.2313,327.5469 Q887.8563,327.5469 888.45,327.2813 Q889.0438,327 889.6688,326.4219 L889.6688,329.1406 Z "/><text fill="#000000" font-family="sans-serif" font-size="12" lengthAdjust="spacingAndGlyphs" textLength="26" x="906.3" y="328.156">Pack</text><line style="stroke: #A80036; stroke-width: 1.5;" x1="847.5" x2="959.5" y1="339.5" y2="339.5"/><ellipse cx="857.5" cy="350.5" fill="none" rx="3" ry="3" style="stroke: #038048; stroke-width: 1.0;"/><text fill="#000000" font-family="sans-serif" font-size="11" lengthAdjust="spacingAndGlyphs" textLength="88" x="866.5" y="355.2589">check_crash:void</text><line style="stroke: #A80036; stroke-width: 1.5;" x1="847.5" x2="959.5" y1="362.4819" y2="362.4819"/><!--MD5=[276a4ca0c0054b277d456e57be7599b4]
class WeaponPack--><rect fill="#FEFECE" filter="url(#f5pww1ws2ctwc)" height="48" id="WeaponPack" style="stroke: #A80036; stroke-width: 1.5;" width="104" x="846.5" y="538.5"/><ellipse cx="861.5" cy="554.5" fill="#ADD1B2" rx="11" ry="11" style="stroke: #A80036; stroke-width: 1.0;"/><path d="M864.4688,560.1406 Q863.8906,560.4375 863.25,560.5781 Q862.6094,560.7344 861.9063,560.7344 Q859.4063,560.7344 858.0781,559.0938 Q856.7656,557.4375 856.7656,554.3125 Q856.7656,551.1875 858.0781,549.5313 Q859.4063,547.875 861.9063,547.875 Q862.6094,547.875 863.25,548.0313 Q863.9063,548.1875 864.4688,548.4844 L864.4688,551.2031 Q863.8438,550.625 863.25,550.3594 Q862.6563,550.0781 862.0313,550.0781 Q860.6875,550.0781 860,551.1563 Q859.3125,552.2188 859.3125,554.3125 Q859.3125,556.4063 860,557.4844 Q860.6875,558.5469 862.0313,558.5469 Q862.6563,558.5469 863.25,558.2813 Q863.8438,558 864.4688,557.4219 L864.4688,560.1406 Z "/><text fill="#000000" font-family="sans-serif" font-size="12" lengthAdjust="spacingAndGlyphs" textLength="72" x="875.5" y="559.156">WeaponPack</text><line style="stroke: #A80036; stroke-width: 1.5;" x1="847.5" x2="949.5" y1="570.5" y2="570.5"/><line style="stroke: #A80036; stroke-width: 1.5;" x1="847.5" x2="949.5" y1="578.5" y2="578.5"/><!--MD5=[dcb0413e12ee854e69f3eeec7485408f]
class MedicalPack--><rect fill="#FEFECE" filter="url(#f5pww1ws2ctwc)" height="48" id="MedicalPack" style="stroke: #A80036; stroke-width: 1.5;" width="102" x="985.5" y="538.5"/><ellipse cx="1000.5" cy="554.5" fill="#ADD1B2" rx="11" ry="11" style="stroke: #A80036; stroke-width: 1.0;"/><path d="M1003.4688,560.1406 Q1002.8906,560.4375 1002.25,560.5781 Q1001.6094,560.7344 1000.9063,560.7344 Q998.4063,560.7344 997.0781,559.0938 Q995.7656,557.4375 995.7656,554.3125 Q995.7656,551.1875 997.0781,549.5313 Q998.4063,547.875 1000.9063,547.875 Q1001.6094,547.875 1002.25,548.0313 Q1002.9063,548.1875 1003.4688,548.4844 L1003.4688,551.2031 Q1002.8438,550.625 1002.25,550.3594 Q1001.6563,550.0781 1001.0313,550.0781 Q999.6875,550.0781 999,551.1563 Q998.3125,552.2188 998.3125,554.3125 Q998.3125,556.4063 999,557.4844 Q999.6875,558.5469 1001.0313,558.5469 Q1001.6563,558.5469 1002.25,558.2813 Q1002.8438,558 1003.4688,557.4219 L1003.4688,560.1406 Z "/><text fill="#000000" font-family="sans-serif" font-size="12" lengthAdjust="spacingAndGlyphs" textLength="70" x="1014.5" y="559.156">MedicalPack</text><line style="stroke: #A80036; stroke-width: 1.5;" x1="986.5" x2="1086.5" y1="570.5" y2="570.5"/><line style="stroke: #A80036; stroke-width: 1.5;" x1="986.5" x2="1086.5" y1="578.5" y2="578.5"/><!--MD5=[b6dcce5e5ef3c84b0b048d11301373dd]
class Game--><rect fill="#FEFECE" filter="url(#f5pww1ws2ctwc)" height="257.7464" id="Game" style="stroke: #A80036; stroke-width: 1.5;" width="184" x="498.5" y="655"/><ellipse cx="569.25" cy="671" fill="#ADD1B2" rx="11" ry="11" style="stroke: #A80036; stroke-width: 1.0;"/><path d="M572.2188,676.6406 Q571.6406,676.9375 571,677.0781 Q570.3594,677.2344 569.6563,677.2344 Q567.1563,677.2344 565.8281,675.5938 Q564.5156,673.9375 564.5156,670.8125 Q564.5156,667.6875 565.8281,666.0313 Q567.1563,664.375 569.6563,664.375 Q570.3594,664.375 571,664.5313 Q571.6563,664.6875 572.2188,664.9844 L572.2188,667.7031 Q571.5938,667.125 571,666.8594 Q570.4063,666.5781 569.7813,666.5781 Q568.4375,666.5781 567.75,667.6563 Q567.0625,668.7188 567.0625,670.8125 Q567.0625,672.9063 567.75,673.9844 Q568.4375,675.0469 569.7813,675.0469 Q570.4063,675.0469 571,674.7813 Q571.5938,674.5 572.2188,673.9219 L572.2188,676.6406 Z "/><text fill="#000000" font-family="sans-serif" font-size="12" lengthAdjust="spacingAndGlyphs" textLength="34" x="589.75" y="675.656">Game</text><line style="stroke: #A80036; stroke-width: 1.5;" x1="499.5" x2="681.5" y1="687" y2="687"/><rect fill="none" height="6" style="stroke: #C82930; stroke-width: 1.0;" width="6" x="506.5" y="695"/><text fill="#000000" font-family="sans-serif" font-size="11" lengthAdjust="spacingAndGlyphs" textLength="118" x="518.5" y="702.7589">AllShips:vector&lt;Ship*&gt;</text><rect fill="none" height="6" style="stroke: #C82930; stroke-width: 1.0;" width="6" x="506.5" y="709.9819"/><text fill="#000000" font-family="sans-serif" font-size="11" lengthAdjust="spacingAndGlyphs" textLength="158" x="518.5" y="717.7408">AllWeapons:vector&lt;Weapon*&gt;</text><rect fill="none" height="6" style="stroke: #C82930; stroke-width: 1.0;" width="6" x="506.5" y="724.9638"/><text fill="#000000" font-family="sans-serif" font-size="11" lengthAdjust="spacingAndGlyphs" textLength="131" x="518.5" y="732.7227">AllIsland:vector&lt;Island*&gt;</text><rect fill="none" height="6" style="stroke: #C82930; stroke-width: 1.0;" width="6" x="506.5" y="739.9457"/><text fill="#000000" font-family="sans-serif" font-size="11" lengthAdjust="spacingAndGlyphs" textLength="120" x="518.5" y="747.7046">AllPacks:vector&lt;Pack*&gt;</text><ellipse cx="509.5" cy="757.9276" fill="none" rx="3" ry="3" style="stroke: #038048; stroke-width: 1.0;"/><text fill="#000000" font-family="sans-serif" font-size="11" lengthAdjust="spacingAndGlyphs" textLength="63" x="518.5" y="762.6865">update:void</text><ellipse cx="509.5" cy="772.9094" fill="none" rx="3" ry="3" style="stroke: #038048; stroke-width: 1.0;"/><text fill="#000000" font-family="sans-serif" font-size="11" lengthAdjust="spacingAndGlyphs" textLength="92" x="518.5" y="777.6684">updateItems:void</text><line style="stroke: #A80036; stroke-width: 1.5;" x1="499.5" x2="681.5" y1="784.8913" y2="784.8913"/><ellipse cx="509.5" cy="795.8913" fill="#84BE84" rx="3" ry="3" style="stroke: #038048; stroke-width: 1.0;"/><text fill="#000000" font-family="sans-serif" font-size="11" lengthAdjust="spacingAndGlyphs" textLength="76" x="518.5" y="800.6502">kill(Ship*):void</text><ellipse cx="509.5" cy="810.8732" fill="#84BE84" rx="3" ry="3" style="stroke: #038048; stroke-width: 1.0;"/><text fill="#000000" font-family="sans-serif" font-size="11" lengthAdjust="spacingAndGlyphs" textLength="134" x="518.5" y="815.6321">addWeapon(row,col):void</text><ellipse cx="509.5" cy="825.8551" fill="#84BE84" rx="3" ry="3" style="stroke: #038048; stroke-width: 1.0;"/><text fill="#000000" font-family="sans-serif" font-size="11" lengthAdjust="spacingAndGlyphs" textLength="114" x="518.5" y="830.614">addShip(row,col):void</text><ellipse cx="509.5" cy="840.837" fill="#84BE84" rx="3" ry="3" style="stroke: #038048; stroke-width: 1.0;"/><text fill="#000000" font-family="sans-serif" font-size="11" lengthAdjust="spacingAndGlyphs" textLength="115" x="518.5" y="845.5959">addPack(row,col):void</text><ellipse cx="509.5" cy="855.8189" fill="#84BE84" rx="3" ry="3" style="stroke: #038048; stroke-width: 1.0;"/><text fill="#000000" font-family="sans-serif" font-size="11" lengthAdjust="spacingAndGlyphs" textLength="117" x="518.5" y="860.5778">getShip(row,col):Ship*</text><ellipse cx="509.5" cy="870.8008" fill="#84BE84" rx="3" ry="3" style="stroke: #038048; stroke-width: 1.0;"/><text fill="#000000" font-family="sans-serif" font-size="11" lengthAdjust="spacingAndGlyphs" textLength="121" x="518.5" y="875.5597">getIsland(row,col):bool</text><ellipse cx="509.5" cy="885.7827" fill="#84BE84" rx="3" ry="3" style="stroke: #038048; stroke-width: 1.0;"/><text fill="#000000" font-family="sans-serif" font-size="11" lengthAdjust="spacingAndGlyphs" textLength="141" x="518.5" y="890.5416">paintAt(row,col,char*):void</text><ellipse cx="509.5" cy="900.7645" fill="#84BE84" rx="3" ry="3" style="stroke: #038048; stroke-width: 1.0;"/><text fill="#000000" font-family="sans-serif" font-size="11" lengthAdjust="spacingAndGlyphs" textLength="152" x="518.5" y="905.5235">paintMsg(row,col,char*):void</text><!--MD5=[36b6a3ceda9c8330cf0107505e0e5600]
class Gui--><rect fill="#FEFECE" filter="url(#f5pww1ws2ctwc)" height="62.9819" id="Gui" style="stroke: #A80036; stroke-width: 1.5;" width="216" x="482.5" y="974"/><ellipse cx="576.75" cy="990" fill="#ADD1B2" rx="11" ry="11" style="stroke: #A80036; stroke-width: 1.0;"/><path d="M579.7188,995.6406 Q579.1406,995.9375 578.5,996.0781 Q577.8594,996.2344 577.1563,996.2344 Q574.6563,996.2344 573.3281,994.5938 Q572.0156,992.9375 572.0156,989.8125 Q572.0156,986.6875 573.3281,985.0313 Q574.6563,983.375 577.1563,983.375 Q577.8594,983.375 578.5,983.5313 Q579.1563,983.6875 579.7188,983.9844 L579.7188,986.7031 Q579.0938,986.125 578.5,985.8594 Q577.9063,985.5781 577.2813,985.5781 Q575.9375,985.5781 575.25,986.6563 Q574.5625,987.7188 574.5625,989.8125 Q574.5625,991.9063 575.25,992.9844 Q575.9375,994.0469 577.2813,994.0469 Q577.9063,994.0469 578.5,993.7813 Q579.0938,993.5 579.7188,992.9219 L579.7188,995.6406 Z "/><text fill="#000000" font-family="sans-serif" font-size="12" lengthAdjust="spacingAndGlyphs" textLength="19" x="597.25" y="994.656">Gui</text><line style="stroke: #A80036; stroke-width: 1.5;" x1="483.5" x2="697.5" y1="1006" y2="1006"/><text fill="#000000" font-family="sans-serif" font-size="11" lengthAdjust="spacingAndGlyphs" textLength="204" x="488.5" y="1021.7589">finish some keyboard-input detect task</text><line style="stroke: #A80036; stroke-width: 1.5;" x1="483.5" x2="697.5" y1="1028.9819" y2="1028.9819"/><!--MD5=[4520fda4e10d4d791ce48fe025810cd4]
class main--><rect fill="#FEFECE" filter="url(#f5pww1ws2ctwc)" height="62.9819" id="main" style="stroke: #A80036; stroke-width: 1.5;" width="60" x="1122.5" y="531"/><ellipse cx="1137.5" cy="547" fill="#ADD1B2" rx="11" ry="11" style="stroke: #A80036; stroke-width: 1.0;"/><path d="M1140.4688,552.6406 Q1139.8906,552.9375 1139.25,553.0781 Q1138.6094,553.2344 1137.9063,553.2344 Q1135.4063,553.2344 1134.0781,551.5938 Q1132.7656,549.9375 1132.7656,546.8125 Q1132.7656,543.6875 1134.0781,542.0313 Q1135.4063,540.375 1137.9063,540.375 Q1138.6094,540.375 1139.25,540.5313 Q1139.9063,540.6875 1140.4688,540.9844 L1140.4688,543.7031 Q1139.8438,543.125 1139.25,542.8594 Q1138.6563,542.5781 1138.0313,542.5781 Q1136.6875,542.5781 1136,543.6563 Q1135.3125,544.7188 1135.3125,546.8125 Q1135.3125,548.9063 1136,549.9844 Q1136.6875,551.0469 1138.0313,551.0469 Q1138.6563,551.0469 1139.25,550.7813 Q1139.8438,550.5 1140.4688,549.9219 L1140.4688,552.6406 Z "/><text fill="#000000" font-family="sans-serif" font-size="12" lengthAdjust="spacingAndGlyphs" textLength="28" x="1151.5" y="551.656">main</text><line style="stroke: #A80036; stroke-width: 1.5;" x1="1123.5" x2="1181.5" y1="563" y2="563"/><text fill="#000000" font-family="sans-serif" font-size="11" lengthAdjust="spacingAndGlyphs" textLength="37" x="1128.5" y="578.7589">update</text><line style="stroke: #A80036; stroke-width: 1.5;" x1="1123.5" x2="1181.5" y1="585.9819" y2="585.9819"/><!--MD5=[f2e3c04991c3a10c1454d8a89c8acf09]
reverse link Item to Ship--><path d="M613.53,131.08 C528.43,180.96 381.31,267.19 306.72,310.91 " fill="none" id="Item&lt;-Ship" style="stroke: #A80036; stroke-width: 1.0;"/><polygon fill="none" points="610.16,124.94,630.96,120.87,617.24,137.02,610.16,124.94" style="stroke: #A80036; stroke-width: 1.0;"/><!--MD5=[70c34348697197d154b17b3036ab93ea]
reverse link Item to Weapon--><path d="M624.47,194.05 C604.5,231.39 583.07,271.48 567.9,299.85 " fill="none" id="Item&lt;-Weapon" style="stroke: #A80036; stroke-width: 1.0;"/><polygon fill="none" points="618.36,190.62,633.97,176.29,630.71,197.23,618.36,190.62" style="stroke: #A80036; stroke-width: 1.0;"/><!--MD5=[438eb9bce9ed109b43914e9cab3efe8d]
reverse link Item to Bomber--><path d="M675.44,196.45 C675.37,206.1 675.38,215.73 675.5,225 C675.91,256 676.96,291.78 677.7,314.63 " fill="none" id="Item&lt;-Bomber" style="stroke: #A80036; stroke-width: 1.0;"/><polygon fill="none" points="668.44,195.99,675.7,176.08,682.44,196.17,668.44,195.99" style="stroke: #A80036; stroke-width: 1.0;"/><text fill="#000000" font-family="sans-serif" font-size="13" lengthAdjust="spacingAndGlyphs" textLength="90" x="676.5" y="220.897">can't be detroy</text><!--MD5=[ee3f42639465e995f6d7e162a70a7831]
reverse link Item to Pack--><path d="M742.51,137.19 C768.1,156.6 796.82,180.71 819.5,206 C847.7,237.45 872.63,279.39 887.86,307.48 " fill="none" id="Item&lt;-Pack" style="stroke: #A80036; stroke-width: 1.0;"/><polygon fill="none" points="738.15,142.67,726.24,125.15,746.48,131.42,738.15,142.67" style="stroke: #A80036; stroke-width: 1.0;"/><!--MD5=[5d10343515e67428e5f7eb4d3837def0]
reverse link Item to Island--><path d="M739.37,153.4 C752.08,169.31 763.92,187.29 771.5,206 C806.2,291.65 800.59,404.89 796.11,452.9 " fill="none" id="Item&lt;-Island" style="stroke: #A80036; stroke-width: 1.0;"/><polygon fill="none" points="733.84,157.71,726.21,137.94,744.5,148.64,733.84,157.71" style="stroke: #A80036; stroke-width: 1.0;"/><!--MD5=[08e6cd26630c01fbe99da627f7e65008]
reverse link Weapon to Bullet--><path d="M531.9,397.58 C519.46,443.52 502.68,505.45 493.73,538.48 " fill="none" id="Weapon&lt;-Bullet" style="stroke: #A80036; stroke-width: 1.0;"/><polygon fill="none" points="525.2,395.55,537.19,378.08,538.71,399.21,525.2,395.55" style="stroke: #A80036; stroke-width: 1.0;"/><!--MD5=[90b5d9961dcda264a0206e7e929cee88]
reverse link Weapon to Missile--><path d="M558.74,397.89 C567.65,443.8 579.63,505.52 586.03,538.48 " fill="none" id="Weapon&lt;-Missile" style="stroke: #A80036; stroke-width: 1.0;"/><polygon fill="none" points="551.83,399.04,554.89,378.08,565.58,396.38,551.83,399.04" style="stroke: #A80036; stroke-width: 1.0;"/><!--MD5=[6de8849ef3d0213a0e1555f80ba150ff]
reverse link Weapon to Torpedo--><path d="M585.36,394.82 C617.27,441 661.32,504.78 684.6,538.48 " fill="none" id="Weapon&lt;-Torpedo" style="stroke: #A80036; stroke-width: 1.0;"/><polygon fill="none" points="579.41,398.51,573.8,378.08,590.93,390.55,579.41,398.51" style="stroke: #A80036; stroke-width: 1.0;"/><!--MD5=[19bb16f05afd8488cc403ddc79494b3e]
reverse link Pack to MedicalPack--><path d="M932.33,388.02 C960.24,434.49 1001.35,502.96 1022.62,538.38 " fill="none" id="Pack&lt;-MedicalPack" style="stroke: #A80036; stroke-width: 1.0;"/><polygon fill="none" points="926.29,391.55,921.99,370.8,938.29,384.34,926.29,391.55" style="stroke: #A80036; stroke-width: 1.0;"/><!--MD5=[bb3e71aa642219aa7fd7d8679080f485]
reverse link Pack to WeaponPack--><path d="M902.35,390.82 C901.31,437.21 899.81,503.67 899.02,538.38 " fill="none" id="Pack&lt;-WeaponPack" style="stroke: #A80036; stroke-width: 1.0;"/><polygon fill="none" points="895.36,390.64,902.8,370.8,909.35,390.95,895.36,390.64" style="stroke: #A80036; stroke-width: 1.0;"/><!--MD5=[2e1b547b781fa2d06ad1d02dd20387a2]
reverse link Ship to Player--><path d="M196.03,368.33 C158.58,387.57 112.94,416.21 82.5,453 C61.7,478.13 50.06,514.57 44.28,538.15 " fill="none" id="Ship&lt;-Player" style="stroke: #A80036; stroke-width: 1.0;"/><polygon fill="none" points="193.16,361.94,214.19,359.39,199.34,374.5,193.16,361.94" style="stroke: #A80036; stroke-width: 1.0;"/><text fill="#000000" font-family="sans-serif" font-size="13" lengthAdjust="spacingAndGlyphs" textLength="90" x="83.5" y="482.397">control by user</text><!--MD5=[8c74514cfa6a93aeb5ee92018b029bc8]
reverse link Ship to Destroyer--><path d="M313.53,441.26 C332.48,477.45 352.15,515 364.35,538.31 " fill="none" id="Ship&lt;-Destroyer" style="stroke: #A80036; stroke-width: 1.0;"/><polygon fill="none" points="307.1,444.07,304.02,423.11,319.5,437.58,307.1,444.07" style="stroke: #A80036; stroke-width: 1.0;"/><!--MD5=[11b3cd244b12783122e6736e06911952]
reverse link Ship to Cruiser--><path d="M260.5,443.24 C260.5,478.82 260.5,515.43 260.5,538.31 " fill="none" id="Ship&lt;-Cruiser" style="stroke: #A80036; stroke-width: 1.0;"/><polygon fill="none" points="253.5,443.11,260.5,423.11,267.5,443.11,253.5,443.11" style="stroke: #A80036; stroke-width: 1.0;"/><!--MD5=[5678c1332968464dfb60d529258317f9]
reverse link Ship to Gunboat--><path d="M209.3,441.26 C191,477.45 172.01,515 160.23,538.31 " fill="none" id="Ship&lt;-Gunboat" style="stroke: #A80036; stroke-width: 1.0;"/><polygon fill="none" points="203.21,437.8,218.48,423.11,215.7,444.12,203.21,437.8" style="stroke: #A80036; stroke-width: 1.0;"/><!--MD5=[5541fa5ed93384aa28bd427ea7c72765]
link Island to Game--><path d="M789.28,501.39 C784.21,525.68 774.24,564.23 757.5,594 C738.29,628.15 712.11,661.52 686.17,690.48 " fill="none" id="Island-&gt;Game" style="stroke: #A80036; stroke-width: 1.0; stroke-dasharray: 7.0,7.0;"/><polygon fill="#A80036" points="682.68,694.35,691.6739,690.3362,686.0248,690.6335,685.7275,684.9845,682.68,694.35" style="stroke: #A80036; stroke-width: 1.0;"/><!--MD5=[86fb2dafc5e601216a471b22a40ae449]
link Player to Game--><path d="M73.05,584.7 C78.78,587.99 84.74,591.22 90.5,594 C226.21,659.59 390.98,718.03 493.31,751.99 " fill="none" id="Player-&gt;Game" style="stroke: #A80036; stroke-width: 1.0; stroke-dasharray: 7.0,7.0;"/><polygon fill="#A80036" points="498.14,753.59,490.8548,746.9624,493.3937,752.0174,488.3387,754.5564,498.14,753.59" style="stroke: #A80036; stroke-width: 1.0;"/><!--MD5=[0e8b9185caa20d36c2b5085abffb56b1]
link Cruiser to Game--><path d="M295.19,586.58 C341.99,617.7 427.18,674.37 494.08,718.86 " fill="none" id="Cruiser-&gt;Game" style="stroke: #A80036; stroke-width: 1.0; stroke-dasharray: 7.0,7.0;"/><polygon fill="#A80036" points="498.45,721.78,493.1803,713.4595,494.2897,719.0065,488.7427,720.1159,498.45,721.78" style="stroke: #A80036; stroke-width: 1.0;"/><!--MD5=[8a740e2a6cf52940e4a78856860a5b86]
link Destroyer to Game--><path d="M399,586.58 C421.93,610.1 459.08,648.21 494.59,684.63 " fill="none" id="Destroyer-&gt;Game" style="stroke: #A80036; stroke-width: 1.0; stroke-dasharray: 7.0,7.0;"/><polygon fill="#A80036" points="498.47,688.6,495.0648,679.3585,494.9848,685.0148,489.3285,684.9348,498.47,688.6" style="stroke: #A80036; stroke-width: 1.0;"/><!--MD5=[b94a08f4e179933f26ccec576ce47c04]
link Gunboat to Game--><path d="M188.68,584.81 C194.64,587.92 200.72,591.06 206.5,594 C303.73,643.48 415.74,698.37 493.6,736.2 " fill="none" id="Gunboat-&gt;Game" style="stroke: #A80036; stroke-width: 1.0; stroke-dasharray: 7.0,7.0;"/><polygon fill="#A80036" points="498.21,738.43,491.8715,730.8919,493.7152,736.2399,488.3672,738.0836,498.21,738.43" style="stroke: #A80036; stroke-width: 1.0;"/><!--MD5=[dbbdbcbfade04d6e4dad4f07520a450e]
link Bullet to Game--><path d="M498.33,586.58 C505.89,602.69 516.66,625.64 528.19,650.21 " fill="none" id="Bullet-&gt;Game" style="stroke: #A80036; stroke-width: 1.0; stroke-dasharray: 7.0,7.0;"/><polygon fill="#A80036" points="530.35,654.82,530.1416,644.9733,528.2231,650.2949,522.9015,648.3764,530.35,654.82" style="stroke: #A80036; stroke-width: 1.0;"/><!--MD5=[809555f1dd4330c092069dabd7c92ccb]
link Torpedo to Game--><path d="M688.94,586.58 C680.86,602.69 669.36,625.64 657.04,650.21 " fill="none" id="Torpedo-&gt;Game" style="stroke: #A80036; stroke-width: 1.0; stroke-dasharray: 7.0,7.0;"/><polygon fill="#A80036" points="654.74,654.82,662.3506,648.5687,656.9818,650.3507,655.1998,644.9819,654.74,654.82" style="stroke: #A80036; stroke-width: 1.0;"/><!--MD5=[239fffa29fa5ec06f487318d102d5d1c]
link Missile to Game--><path d="M590.5,586.58 C590.5,602.55 590.5,625.26 590.5,649.6 " fill="none" id="Missile-&gt;Game" style="stroke: #A80036; stroke-width: 1.0; stroke-dasharray: 7.0,7.0;"/><polygon fill="#A80036" points="590.5,654.82,594.5,645.82,590.5,649.82,586.5,645.82,590.5,654.82" style="stroke: #A80036; stroke-width: 1.0;"/><!--MD5=[3b5f845e32a093d4e07548139ff8ca39]
link MedicalPack to Game--><path d="M989.61,586.58 C918.24,621.7 780.8,689.34 687.37,735.33 " fill="none" id="MedicalPack-&gt;Game" style="stroke: #A80036; stroke-width: 1.0; stroke-dasharray: 7.0,7.0;"/><polygon fill="#A80036" points="682.67,737.64,692.5118,737.2683,687.1592,735.4383,688.9891,730.0856,682.67,737.64" style="stroke: #A80036; stroke-width: 1.0;"/><!--MD5=[ca79d818d47fb9259fa326501a6532e9]
link WeaponPack to Game--><path d="M869.54,586.69 C854.73,598.38 836.32,612.67 819.5,625 C776.57,656.48 728.16,690.14 686.94,718.27 " fill="none" id="WeaponPack-&gt;Game" style="stroke: #A80036; stroke-width: 1.0; stroke-dasharray: 7.0,7.0;"/><polygon fill="#A80036" points="682.72,721.15,692.4096,719.3859,686.8514,718.3338,687.9036,712.7756,682.72,721.15" style="stroke: #A80036; stroke-width: 1.0;"/><!--MD5=[118fa730dcef6c59e742d1e02640f4a4]
link Game to Gui--><path d="M590.5,913 C590.5,933.45 590.5,953.04 590.5,968.8 " fill="none" id="Game-&gt;Gui" style="stroke: #A80036; stroke-width: 1.0; stroke-dasharray: 7.0,7.0;"/><polygon fill="#A80036" points="590.5,973.99,594.5,964.99,590.5,968.99,586.5,964.99,590.5,973.99" style="stroke: #A80036; stroke-width: 1.0;"/><!--MD5=[91d7803105103bce12aec3de72b9de8d]
link main to Game--><path d="M1122.5,584.38 C1116.97,587.81 1111.16,591.17 1105.5,594 C965.67,663.92 793.43,721.88 687.82,754.47 " fill="none" id="main-&gt;Game" style="stroke: #A80036; stroke-width: 1.0; stroke-dasharray: 7.0,7.0;"/><polygon fill="#A80036" points="682.85,756,692.6291,757.1702,687.628,754.5266,690.2716,749.5254,682.85,756" style="stroke: #A80036; stroke-width: 1.0;"/><!--MD5=[0c075c82278ccaf55cf7db33bf31b660]
@startuml
class Item{
    -row:int
    -col:int
    -direction:int
    -type:int
    -showable
    +update: void
    +move: void
    +remove: void
}

class Ship{
    -health
    -bullet
    -misssile
    -torpedo
    
    +fire: void
    +move:void
    +remove:void
}

class Weapon{
    -sender
    +check_crash:void
}

class Player{}
class Gunboat{}
class Cruiser{}
class Destroyer{}
class Bomber{}
class Bullet{}
class Missile{}
class Torpedo{}
class Island{}
class Pack{
    +check_crash:void
}
class WeaponPack{}
class MedicalPack{}
class Game{
    -AllShips:vector<Ship*>
    -AllWeapons:vector<Weapon*>
    -AllIsland:vector<Island*>
    -AllPacks:vector<Pack*>
    +kill(Ship*):void
    +addWeapon(row,col):void
    +addShip(row,col):void
    +addPack(row,col):void
    +update:void
    +updateItems:void
    +getShip(row,col):Ship*
    +getIsland(row,col):bool
    +paintAt(row,col,char*):void
    +paintMsg(row,col,char*):void
}

class Gui{
    finish some keyboard-input detect task
}
class main{
    update
}
Item <|- - Ship
Item <|- - Weapon
Item <|- - Bomber : can't be detroy
Item <|- - Pack
Item <|- - Island
Weapon <|- - Bullet
Weapon <|- - Missile
Weapon <|- - Torpedo
Pack <|- - MedicalPack
Pack <|- - WeaponPack
Ship <|- - Player : control by user
Ship <|- - Destroyer
Ship <|- - Cruiser
Ship <|- - Gunboat

Island ..>Game
Player ..>Game
Cruiser ..>Game
Destroyer ..>Game
Gunboat ..>Game
Bullet ..>Game
Torpedo ..>Game
Missile ..>Game
MedicalPack ..>Game
WeaponPack ..>Game

Game ..> Gui
main ..> Game
@enduml

PlantUML version 1.2020.02(Sun Mar 01 18:22:07 CST 2020)
(GPL source distribution)
Java Runtime: OpenJDK Runtime Environment
JVM: OpenJDK 64-Bit Server VM
Java Version: 21.0.9+10-Ubuntu-124.04
Operating System: Linux
Default Encoding: UTF-8
Language: en
Country: AU
--></g></svg>